<?xml version="1.0" encoding="UTF-8"?>
<svg version="1.1" xmlns="http://www.w3.org/2000/svg" width="375" height="666">
<path d="M0 0 C23.47693779 -0.42132092 44.3400435 1.37857464 62.23828125 18.08984375 C73.60286613 29.92527772 75.41833699 42.36371113 75.2109375 58.01953125 C75.02909057 64.02384736 74.0049739 69.33575814 72 75 C71.60941406 76.15371094 71.21882813 77.30742187 70.81640625 78.49609375 C67.38911062 87.82649346 62.65927575 95.94136662 57.16333008 104.20166016 C56.77943115 104.7951123 56.39553223 105.38856445 56 106 C55.48244141 106.78511963 54.96488281 107.57023926 54.43164062 108.37915039 C52.92602118 111.13543019 52.34623152 113.30976287 51.82421875 116.39453125 C51.63964111 117.42449219 51.45506348 118.45445312 51.26489258 119.515625 C51.07435303 120.60359375 50.88381348 121.6915625 50.6875 122.8125 C46.89407653 142.79932402 39.48859865 159.80483582 27 176 C26.34 176 25.68 176 25 176 C24.77570313 176.54914063 24.55140625 177.09828125 24.3203125 177.6640625 C19.92330819 185.44337782 11.34207745 192.06308585 4 197 C2.47632813 198.06347656 2.47632813 198.06347656 0.921875 199.1484375 C-22.8390533 215.37798495 -52.43312372 220.3381183 -80.78515625 216.46875 C-84.25673445 215.79706715 -87.60524938 214.98502727 -91 214 C-92.10730469 213.70996094 -93.21460938 213.41992188 -94.35546875 213.12109375 C-99.86898077 211.5762762 -104.47515272 209.76796344 -109.375 206.8125 C-116.14028095 203.22824519 -122.73498129 203.40121992 -130.21386719 203.25219727 C-146.68994988 202.9193066 -165.15300348 200.31996335 -178 189 C-178 188.34 -178 187.68 -178 187 C-178.639375 186.731875 -179.27875 186.46375 -179.9375 186.1875 C-182 185 -182 185 -183 182 C-183.66 182 -184.32 182 -185 182 C-194.60336541 168.9486793 -196.55536085 154.93649024 -194.49609375 139.1328125 C-192.54085082 128.20579772 -188.79695079 118.44688276 -183 109 C-182.01 109 -181.02 109 -180 109 C-179.00092162 118.02781667 -178.61679779 125.43021466 -182 134 C-185.81720652 144.29659766 -186.46843553 156.24331691 -181.92578125 166.40234375 C-176.52872031 176.63462648 -168.37968087 184.97269559 -157.15429688 188.59570312 C-115.9088663 200.39725698 -70.8546419 187.76836912 -34 168 C-32.91936279 167.42958984 -32.91936279 167.42958984 -31.81689453 166.84765625 C-19.85880944 160.51705794 -8.34974543 153.53641687 2.3203125 145.18359375 C4 144 4 144 6 144 C6 143.34 6 142.68 6 142 C7.8984375 140.2734375 7.8984375 140.2734375 10.375 138.375 C11.18710938 137.74335938 11.99921875 137.11171875 12.8359375 136.4609375 C15 135 15 135 17 135 C17 134.34 17 133.68 17 133 C18.36328125 131.66015625 18.36328125 131.66015625 20.3125 130.0625 C42.19742915 111.29300013 61.98209274 85.42459582 65 56 C65.27420509 44.96324513 63.38968269 35.44535165 56 27 C56 26.34 56 25.68 56 25 C55.42378906 24.72929687 54.84757813 24.45859375 54.25390625 24.1796875 C51.98037607 22.9897289 50.01682437 21.62522282 47.9375 20.125 C39.26094499 14.33593489 29.91048055 12.4098408 19.796875 10.7109375 C13.96029323 9.6180796 8.99751628 8.37437011 4.0625 5 C2.90427734 4.2265625 2.90427734 4.2265625 1.72265625 3.4375 C0.86994141 2.7259375 0.86994141 2.7259375 0 2 C0 1.34 0 0.68 0 0 Z M34 130 C32.29115995 131.62339805 30.62553283 133.29319053 29 135 C29 135.66 29 136.32 29 137 C28.34 137 27.68 137 27 137 C27 137.66 27 138.32 27 139 C26.4740625 139.2165625 25.948125 139.433125 25.40625 139.65625 C22.07896653 141.51434337 19.35060065 143.99845249 16.5 146.5 C9.68041237 152.48453608 9.68041237 152.48453608 6 154 C6 154.66 6 155.32 6 156 C4.948125 156.3403125 4.948125 156.3403125 3.875 156.6875 C-1.27485283 158.97771941 -1.27485283 158.97771941 -5 163 C-5.47886556 166.2246543 -5.56937835 169.38364388 -5.68359375 172.640625 C-6.31517211 179.34627178 -9.39144248 184.82751984 -14.25 189.4375 C-20.61943584 194.30419015 -28.10138928 195.9975754 -36 195 C-39.8095612 194.17267105 -43.53222805 193.31630654 -46.49047852 190.66333008 C-48.29451433 189.084569 -49.79069484 187.94619392 -52 187 C-55.51457639 187.33721547 -58.47804403 188.64355638 -61.6875 190.0625 C-62.94916992 190.57200195 -62.94916992 190.57200195 -64.23632812 191.09179688 C-67.90150378 192.5886767 -71.47150116 194.20415283 -75 196 C-71.03666479 201.68078047 -66.67101424 204.9480519 -60 207 C-41.29397224 209.45569999 -21.46421891 201.97691543 -6 192 C-5.20980469 191.53078125 -4.41960937 191.0615625 -3.60546875 190.578125 C-2.86941406 190.13984375 -2.13335937 189.7015625 -1.375 189.25 C-0.72273438 188.86328125 -0.07046875 188.4765625 0.6015625 188.078125 C1.06304687 187.72234375 1.52453125 187.3665625 2 187 C2 186.34 2 185.68 2 185 C2.721875 184.773125 3.44375 184.54625 4.1875 184.3125 C7.54774921 182.7443837 9.55647719 180.69673761 12 178 C12.68320312 177.28585937 13.36640625 176.57171875 14.0703125 175.8359375 C21.90917267 167.46562919 27.65839804 158.10302993 33 148 C33.35964844 147.3709375 33.71929687 146.741875 34.08984375 146.09375 C35.21083054 143.51499927 35.49128635 141.23389015 35.75 138.4375 C35.84796875 137.48746094 35.9459375 136.53742188 36.046875 135.55859375 C36.2255743 132.75404827 36.2255743 132.75404827 34 130 Z M-32.625 178 C-33.81351563 178.556875 -35.00203125 179.11375 -36.2265625 179.6875 C-37.14179688 180.120625 -38.05703125 180.55375 -39 181 C-36.18225858 182.7365637 -36.18225858 182.7365637 -32.96484375 182.64453125 C-32.29582031 182.36996094 -31.62679687 182.09539062 -30.9375 181.8125 C-30.26589844 181.55082031 -29.59429687 181.28914062 -28.90234375 181.01953125 C-26.83856142 179.91347953 -25.49275565 178.79967737 -24 177 C-24 176.34 -24 175.68 -24 175 C-27.22452084 175 -29.73453013 176.63977889 -32.625 178 Z M-97 201 C-95.515 201.99 -95.515 201.99 -94 203 C-90.85813434 202.34163026 -90.85813434 202.34163026 -88 201 C-87.67 200.34 -87.34 199.68 -87 199 C-90.61029169 199 -93.55806676 199.96092582 -97 201 Z " fill="#CECECE" transform="translate(244,211)"/>
<path d="M0 0 C1.57007813 0.67869141 1.57007813 0.67869141 3.171875 1.37109375 C15.1384553 6.95866365 26.9543571 15.36313861 36 25 C36.33 25.99 36.66 26.98 37 28 C37.60457031 28.29519531 38.20914063 28.59039062 38.83203125 28.89453125 C50.19129469 34.68673225 58.85914202 56.67666365 62.84765625 68.32421875 C64.27015199 72.86173907 65.41018654 77.28149229 66 82 C66.2165625 83.546875 66.2165625 83.546875 66.4375 85.125 C65.79308551 89.35972378 63.75996423 92.74246475 61 96 C60.01 96.33 59.02 96.66 58 97 C57.72736328 95.21142578 57.72736328 95.21142578 57.44921875 93.38671875 C57.19595074 91.82020918 56.94200928 90.25380838 56.6875 88.6875 C56.56955078 87.90181641 56.45160156 87.11613281 56.33007812 86.30664062 C56.20439453 85.54931641 56.07871094 84.79199219 55.94921875 84.01171875 C55.83924561 83.31522217 55.72927246 82.61872559 55.6159668 81.90112305 C54.85592621 79.55532994 53.93402616 78.51178263 52 77 C48.93777345 76.61722168 46.93353694 76.37764204 44.3125 78.125 C39.85210349 84.49699502 38.94325111 90.30230957 40 98 C40.95954756 99.69027993 41.95525004 101.36101394 43 103 C43 103.99 43 104.98 43 106 C43.66 106 44.32 106 45 106 C45 106.66 45 107.32 45 108 C46.32 108.66 47.64 109.32 49 110 C47.62845496 112.95409701 46.01136276 115.44008376 44 118 C38.12919837 115.39933787 34.34933406 110.89929797 31.66015625 105.12109375 C28.1725825 95.40305018 27.95162598 88.3266515 31.71875 78.70703125 C33.37625805 75.20504016 35.45568395 72.1441487 37.671875 68.9765625 C41.36245715 63.48410789 41.89447439 57.43260305 41 51 C38.39963033 42.870689 32.92054453 36.93910424 27 31 C26.19820312 30.175 25.39640625 29.35 24.5703125 28.5 C6.16381873 10.59702734 -18.77416996 1.3946267 -44.23364258 1.55395508 C-46.3292569 1.56256888 -48.42222339 1.5333871 -50.51757812 1.50195312 C-57.93214342 1.46114222 -64.75565181 1.58538246 -71 6 C-73.9823216 9.06154836 -74.15356326 11.6222155 -74.22265625 15.73046875 C-74.18428368 17.54985778 -74.13042238 19.36897437 -74.0625 21.1875 C-73.57905355 35.47488543 -76.27081292 47.60463278 -86.25 58.44140625 C-94.91093571 66.15505212 -106.45695131 70.08550406 -118 70 C-121.05445588 69.56364916 -124.06934958 68.9987146 -127.1015625 68.4296875 C-132.4924463 67.63049988 -136.94670379 67.70786591 -141.61328125 70.64453125 C-149.43254345 78.36141358 -148.8726389 94.42612726 -148.98730469 104.75878906 C-148.99149414 105.49838867 -148.99568359 106.23798828 -149 107 C-149.01289063 108.25554687 -149.02578125 109.51109375 -149.0390625 110.8046875 C-148.54591035 128.14088222 -142.37833379 145.11362246 -133.29296875 159.75 C-132 162 -132 162 -132 164 C-131.46375 164.2475 -130.9275 164.495 -130.375 164.75 C-128 166 -128 166 -125.125 168 C-119.66220501 171.49618879 -114.4765151 172.824501 -108 172 C-106.59153968 171.53676115 -105.1955058 171.03445828 -103.8125 170.5 C-95.18051009 167.39486077 -86.00261455 168.15164927 -77.58984375 171.5859375 C-73.14555223 174.01253408 -69.33680425 177.19357145 -66 181 C-66 181.66 -66 182.32 -66 183 C-69.82989106 184.80230168 -72.78121808 185.19622241 -77 185 C-77 184.34 -77 183.68 -77 183 C-77.94875 182.690625 -78.8975 182.38125 -79.875 182.0625 C-83 181 -83 181 -85 180 C-87.28996786 179.90243245 -89.58295953 179.87023484 -91.875 179.875 C-93.10992187 179.87242187 -94.34484375 179.86984375 -95.6171875 179.8671875 C-98.30774489 179.97282139 -100.45629184 180.19470546 -103 181 C-103.0825 182.11375 -103.165 183.2275 -103.25 184.375 C-104 188 -104 188 -105.62109375 189.2265625 C-111.26015597 191.05995219 -118.80468626 190.5166163 -124.15625 187.9765625 C-126.01997507 186.45569251 -127.46887559 184.85712937 -129 183 C-129.70382813 182.21238281 -130.40765625 181.42476562 -131.1328125 180.61328125 C-153.27837251 154.90191073 -161.12602276 124.38297635 -159 91 C-156.46389053 67.50993711 -145.4619378 42.15229247 -128 26 C-127.46375 25.4328125 -126.9275 24.865625 -126.375 24.28125 C-116.03195867 13.42105661 -104.57426657 6.12401177 -91 0 C-90.11699219 -0.40992188 -89.23398438 -0.81984375 -88.32421875 -1.2421875 C-60.59713311 -13.26502464 -27.38521786 -11.96419764 0 0 Z M-103 17 C-103 17.66 -103 18.32 -103 19 C-103.84304687 19.14115234 -103.84304687 19.14115234 -104.703125 19.28515625 C-107.56531831 20.1759409 -109.39770461 21.58871882 -111.75 23.4375 C-112.94882813 24.36369141 -112.94882813 24.36369141 -114.171875 25.30859375 C-115.07679687 26.14583984 -115.07679687 26.14583984 -116 27 C-116 27.66 -116 28.32 -116 29 C-116.99 29.33 -117.98 29.66 -119 30 C-119 30.66 -119 31.32 -119 32 C-119.66 32 -120.32 32 -121 32 C-125.96713005 36.86555275 -130.08262048 41.80318264 -130.234375 48.9609375 C-129.85411701 52.26918202 -128.97466775 54.3246437 -127 57 C-122.02230613 60.64221502 -116.92709827 60.6545812 -111 60 C-104.83757185 58.68602772 -98.88298068 56.03145271 -94 52 C-94 51.34 -94 50.68 -94 50 C-93.34 50 -92.68 50 -92 50 C-86.70840142 43.73363327 -83.01663564 36.034857 -82.4375 27.75 C-83.24494602 22.3670265 -85.56983641 18.8030246 -89.9375 15.5625 C-94.75899661 14.24754638 -98.53490559 14.8987791 -103 17 Z " fill="#CBCBCB" transform="translate(228,210)"/>
<path d="M0 0 C6.57928294 5.98116631 10.59722691 13.73360008 11.16796875 22.61328125 C11.24899019 33.81044481 9.0659959 41.31109009 1.40234375 49.76171875 C-6.37830211 57.0641216 -14.98283598 58.67926431 -25.43359375 58.39453125 C-30.25213434 57.8614835 -33.87226683 56.46950775 -38 54 C-39.010625 53.46375 -40.02125 52.9275 -41.0625 52.375 C-42.0215625 51.694375 -42.0215625 51.694375 -43 51 C-43 50.34 -43 49.68 -43 49 C-43.66 49 -44.32 49 -45 49 C-45 48.34 -45 47.68 -45 47 C-45.66 47 -46.32 47 -47 47 C-47.79831456 45.62884903 -48.5883061 44.25285116 -49.375 42.875 C-50.03628906 41.72644531 -50.03628906 41.72644531 -50.7109375 40.5546875 C-54.71857974 32.61226924 -55.48560974 24.33034223 -53.08984375 15.734375 C-49.50902846 6.56933009 -45.12016914 0.48939201 -36.2890625 -4 C-23.92166963 -9.40282009 -10.98365095 -7.70282014 0 0 Z M-38 9 C-38 9.66 -38 10.32 -38 11 C-38.66 11 -39.32 11 -40 11 C-44.31108758 17.87079583 -45.04919476 23.95267622 -44 32 C-42.45493369 35.57264285 -42.45493369 35.57264285 -40 38 C-39.360625 38.7425 -38.72125 39.485 -38.0625 40.25 C-33.84125867 43.83165931 -29.75472443 44.44179048 -24.35546875 44.32421875 C-20.51633742 43.7957811 -17.08545785 42.35344872 -14 40 C-13.67 39.01 -13.34 38.02 -13 37 C-12.34 37 -11.68 37 -11 37 C-11 36.34 -11 35.68 -11 35 C-10.34 35 -9.68 35 -9 35 C-5.93850647 28.33031767 -3.24232228 22.36832894 -5.6484375 15.01953125 C-6.3588368 13.31386958 -7.17368905 11.65262189 -8 10 C-8.495 9.01 -8.495 9.01 -9 8 C-9.66 8 -10.32 8 -11 8 C-11 7.34 -11 6.68 -11 6 C-20.977569 1.13077243 -29.33654001 0.71321218 -38 9 Z " fill="#D4D4D4" transform="translate(231,229)"/>
<path d="M0 0 C2.26125081 1.46583595 4.22111351 3.00630706 6.20703125 4.82421875 C7.66109375 6.09265625 7.66109375 6.09265625 9.14453125 7.38671875 C13.11305089 12.07678741 13.59324542 16.64274608 13.58203125 22.63671875 C13.58396484 23.69922852 13.58396484 23.69922852 13.5859375 24.78320312 C13.47004609 30.5092921 12.35006958 34.10966126 9.20703125 38.82421875 C8.54703125 38.82421875 7.88703125 38.82421875 7.20703125 38.82421875 C7.20703125 39.48421875 7.20703125 40.14421875 7.20703125 40.82421875 C1.50834346 46.00484401 -4.15982417 47.43659813 -11.79296875 47.82421875 C-19.48601505 47.24958572 -24.89442321 44.09354031 -30.04296875 38.38671875 C-34.06208682 33.43365418 -35.88266768 28.27132934 -35.79296875 21.82421875 C-34.67387704 15.79044928 -32.67886728 10.58757824 -28.79296875 5.82421875 C-28.13296875 5.82421875 -27.47296875 5.82421875 -26.79296875 5.82421875 C-26.46296875 4.83421875 -26.13296875 3.84421875 -25.79296875 2.82421875 C-18.42377526 -2.33421669 -8.39918925 -3.53588247 0 0 Z M-18.0546875 17.40234375 C-20.71647568 21.54912955 -21.35741555 24.83827202 -20.79296875 29.82421875 C-19.88654937 32.99668659 -18.68307957 33.916219 -16.10546875 36.07421875 C-12.1602058 38.15850861 -10.19583075 38.51940749 -5.79296875 37.82421875 C-0.79998867 35.54800724 2.48478018 32.02356034 4.66796875 27.01171875 C5.66915988 22.94891415 5.11349753 19.52800247 3.20703125 15.82421875 C0.09384099 12.71935252 -3.07182236 11.92543228 -7.35546875 11.32421875 C-12.08548031 12.01222043 -15.03980124 13.63140242 -18.0546875 17.40234375 Z " fill="#D0D0D0" transform="translate(119.79296875,304.17578125)"/>
<path d="M0 0 C0 0.66 0 1.32 0 2 C0.5775 2.226875 1.155 2.45375 1.75 2.6875 C5.56083774 4.91048868 7.61929664 7.85788992 9 12 C9.89213684 19.52105236 9.46164061 25.0442521 4.7890625 31.15625 C0.48711809 35.58969489 -4.58360396 37.83890693 -10.75 38.25 C-16.12200799 38.17114484 -20.09986835 36.1047277 -24.6875 33.4375 C-28.59077948 29.32323244 -30.77050739 24.31671469 -31.1640625 18.62890625 C-30.75884844 13.06203692 -28.71774626 8.82180789 -26 4 C-25.34 4 -24.68 4 -24 4 C-24 3.34 -24 2.68 -24 2 C-16.130586 -2.7513443 -8.56537885 -3.85827876 0 0 Z M-12 10 C-12 10.66 -12 11.32 -12 12 C-12.99 12.33 -13.98 12.66 -15 13 C-17.11068291 16.84445815 -18.06102416 18.92190645 -17.8125 23.3125 C-17.1944634 26.12035087 -17.1944634 26.12035087 -15 28 C-8.5816608 28.58816888 -8.5816608 28.58816888 -3 26 C-0.589932 21.9028844 0.17720406 19.90078733 -0.75 15.1875 C-1.88086238 12.16344218 -1.88086238 12.16344218 -3 10 C-6.55692677 9.14943055 -8.49270578 8.83090193 -12 10 Z " fill="#CDCDCD" transform="translate(236,303)"/>
<path d="M0 0 C5.63345487 4.82867561 8.26093909 9.24533003 8.9375 16.6875 C8.25683968 24.4470277 5.33274019 27.9930831 -0.4375 32.8671875 C-4.93522448 36.07725699 -10.08134988 35.69735071 -15.375 35.25 C-20.96636802 33.31452645 -25.42430506 29.42570473 -28.51953125 24.38671875 C-30.46353385 19.53115062 -30.37063012 13.73084695 -28.4296875 8.89453125 C-25.43635127 3.87739851 -21.9707047 0.51766974 -16.6875 -2.0625 C-10.71296315 -3.30249821 -5.43082141 -2.81598147 0 0 Z M-17.375 9.25 C-19.65692506 12.67288759 -19.86401805 14.3850467 -19.75390625 18.37109375 C-19.50666687 20.51132399 -19.50666687 20.51132399 -17.25 22.3125 C-13.74686812 23.45482561 -11.87286841 23.39060926 -8.375 22.25 C-5.64135646 19.61062003 -4.55979799 17.03835888 -4.375 13.25 C-5.29523288 10.41071467 -5.29523288 10.41071467 -7.375 8.25 C-11.34010615 6.98454059 -13.93436112 6.7924008 -17.375 9.25 Z " fill="#CCCCCC" transform="translate(176.375,295.75)"/>
<path d="M0 0 C1.22257108 0.64018267 2.43776218 1.29645167 3.625 2 C3.625 2.66 3.625 3.32 3.625 4 C4.615 4.33 5.605 4.66 6.625 5 C3.20111908 8.82669043 0.61775057 10.72278474 -4.375 12 C-4.375 11.34 -4.375 10.68 -4.375 10 C-10.29204289 8.32305006 -16.11292039 7.95274092 -21.75 10.5625 C-25.97248254 14.48337664 -27.93945061 18.22876581 -29.3125 23.8125 C-30.375 27 -30.375 27 -32.8125 28.4375 C-35.375 29 -35.375 29 -38.375 29 C-39.05669884 20.94585444 -38.8893128 14.94501152 -34.22265625 8.16015625 C-25.56156957 -1.96580766 -12.49216706 -5.59173192 0 0 Z " fill="#C1C1C1" transform="translate(224.375,355)"/>
<path d="M0 0 C6.6 0 13.2 0 20 0 C20 0.33 20 0.66 20 1 C16.92382812 1.29296875 16.92382812 1.29296875 13.84765625 1.5859375 C13.23792969 1.72257813 12.62820313 1.85921875 12 2 C11.67 2.66 11.34 3.32 11 4 C10.01 4 9.02 4 8 4 C8.33 4.99 8.66 5.98 9 7 C5.56072421 5.7580393 2.74792181 4.44259716 0 2 C0 1.34 0 0.68 0 0 Z " fill="#8A8A8A" transform="translate(244,211)"/>
<path d="M0 0 C0.66 0.66 1.32 1.32 2 2 C1.01 2.33 0.02 2.66 -1 3 C-1.67701784 4.32810733 -2.34189997 5.66241764 -3 7 C-4.98828125 9.10546875 -4.98828125 9.10546875 -7.3125 11.1875 C-8.07175781 11.88230469 -8.83101562 12.57710938 -9.61328125 13.29296875 C-12.15371517 15.10994031 -13.92838582 15.63575549 -17 16 C-16.67 15.34 -16.34 14.68 -16 14 C-15.34 14 -14.68 14 -14 14 C-14 13.34 -14 12.68 -14 12 C-13.195625 11.731875 -12.39125 11.46375 -11.5625 11.1875 C-10.716875 10.795625 -9.87125 10.40375 -9 10 C-8.67 9.01 -8.34 8.02 -8 7 C-6.15234375 5.17578125 -6.15234375 5.17578125 -3.9375 3.3125 C-2.83728516 2.37857422 -2.83728516 2.37857422 -1.71484375 1.42578125 C-1.14894531 0.95527344 -0.58304687 0.48476563 0 0 Z " fill="#878787" transform="translate(260,384)"/>
<path d="M0 0 C0.66 0.33 1.32 0.66 2 1 C1.29875 1.515625 0.5975 2.03125 -0.125 2.5625 C-2.47071581 4.55125906 -4.02240909 6.2395402 -5.875 8.625 C-8.90913314 12.31494838 -11.35363913 13.16365504 -16 14 C-14.37660195 12.29115995 -12.70680947 10.62553283 -11 9 C-10.34 9 -9.68 9 -9 9 C-9 8.34 -9 7.68 -9 7 C-7.03125 5.2734375 -7.03125 5.2734375 -4.5 3.375 C-3.24703125 2.42753906 -3.24703125 2.42753906 -1.96875 1.4609375 C-0.99421875 0.73777344 -0.99421875 0.73777344 0 0 Z " fill="#5A5A5A" transform="translate(259,346)"/>
<path d="M0 0 C0.99 0 1.98 0 3 0 C4.90907996 17.25072254 4.90907996 17.25072254 1 25 C0.34 25.33 -0.32 25.66 -1 26 C-0.67 24.783125 -0.34 23.56625 0 22.3125 C1.58905043 15.21248746 2.12967038 7.03643095 0 0 Z " fill="#383838" transform="translate(61,320)"/>
<path d="M0 0 C0.66 0.33 1.32 0.66 2 1 C-1.3810038 5.13621084 -4.66590534 8.81316569 -9 12 C-7.50948318 7.39294801 -5.21457741 4.53603516 -2 1 C-1.34 0.67 -0.68 0.34 0 0 Z " fill="#676767" transform="translate(190,228)"/>
<path d="M0 0 C0.66 0.33 1.32 0.66 2 1 C-0.475 4.465 -0.475 4.465 -3 8 C-3.99 7.67 -4.98 7.34 -6 7 C-5.67 6.01 -5.34 5.02 -5 4 C-4.34 4 -3.68 4 -3 4 C-3 3.34 -3 2.68 -3 2 C-2.01 1.34 -1.02 0.68 0 0 Z " fill="#848484" transform="translate(215,303)"/>
<path d="M0 0 C0.66 0.33 1.32 0.66 2 1 C2.08078641 3.12438339 2.13909141 5.2496323 2.1875 7.375 C2.22230469 8.55835938 2.25710937 9.74171875 2.29296875 10.9609375 C2.19628906 11.96382812 2.09960938 12.96671875 2 14 C1.01 14.66 0.02 15.32 -1 16 C-0.7525 14.824375 -0.7525 14.824375 -0.5 13.625 C0.12960847 9.06033858 0.08180527 4.59927399 0 0 Z " fill="#797979" transform="translate(144,232)"/>
<path d="M0 0 C0.66 0.99 1.32 1.98 2 3 C0.35 4.65 -1.3 6.3 -3 8 C-3.33 7.34 -3.66 6.68 -4 6 C-2.68 4.02 -1.36 2.04 0 0 Z " fill="#747474" transform="translate(88,251)"/>
</svg>
